<?xml version="1.0" standalone="no"?>
<!DOCTYPE svg PUBLIC "-//W3C//DTD SVG 20010904//EN"
 "http://www.w3.org/TR/2001/REC-SVG-20010904/DTD/svg10.dtd">
<svg version="1.0" xmlns="http://www.w3.org/2000/svg"
 width="512.000000pt" height="512.000000pt" viewBox="0 0 512.000000 512.000000"
 preserveAspectRatio="xMidYMid meet">
<metadata>
Created by potrace 1.14, written by Peter Selinger 2001-2017
</metadata>
<g transform="translate(0.000000,512.000000) scale(0.100000,-0.100000)"
fill="#000000" stroke="none">
<path d="M570 5100 c-273 -71 -480 -279 -550 -554 -20 -78 -20 -107 -20 -1986
0 -1879 0 -1908 20 -1986 71 -277 278 -485 554 -554 78 -20 114 -20 1986 -20
1872 0 1908 0 1986 20 276 69 483 277 554 554 20 78 20 107 20 1986 0 1872 0
1908 -20 1986 -69 276 -277 483 -554 554 -78 20 -106 20 -1990 19 -1857 0
-1913 -1 -1986 -19z m820 -1090 l0 -500 -115 0 -115 0 0 500 0 500 115 0 115
0 0 -500z m2590 -910 l0 -1410 -70 0 -71 0 -107 98 c-59 54 -506 463 -994 910
l-888 812 -165 0 -165 0 0 500 0 500 1230 0 1230 0 0 -1410z m-1146 -675 l988
-905 149 0 149 0 0 -455 0 -455 -1560 0 -1560 0 0 1360 0 1360 423 0 422 0
989 -905z"/>
<path d="M2890 4060 l0 -210 420 0 420 0 0 210 0 210 -420 0 -420 0 0 -210z"/>
<path d="M1475 1826 c-33 -14 -58 -46 -68 -85 -3 -14 4 -54 20 -99 23 -66 25
-85 20 -166 -8 -135 -42 -221 -132 -341 -60 -80 -69 -103 -61 -151 20 -102
145 -146 226 -78 49 41 54 84 25 198 -45 177 -30 323 46 454 21 38 35 52 45
48 9 -3 22 -6 29 -6 22 0 84 -59 104 -99 10 -20 26 -71 35 -113 14 -64 23 -82
51 -106 41 -37 81 -47 132 -33 85 23 124 110 89 195 -23 54 -65 77 -151 82
-81 4 -136 22 -174 57 -30 28 -71 113 -71 150 0 39 -56 96 -100 102 -19 3 -49
-1 -65 -9z"/>
<path d="M2242 1823 c-63 -31 -77 -98 -42 -191 13 -35 20 -76 20 -125 0 -133
-44 -254 -136 -374 -64 -84 -76 -128 -47 -183 49 -94 167 -106 232 -24 33 41
34 80 6 188 -40 158 -32 277 27 408 34 74 51 89 88 78 74 -21 119 -82 140
-190 16 -79 29 -107 62 -135 57 -48 139 -42 193 15 38 40 46 120 16 167 -32
50 -62 64 -148 69 -133 7 -207 63 -233 177 -18 75 -35 102 -74 121 -42 20 -62
20 -104 -1z"/>
<path d="M2989 1802 c-23 -21 -32 -38 -36 -72 -4 -41 -1 -50 37 -100 123 -162
149 -310 94 -529 l-27 -108 19 -39 c37 -76 121 -105 193 -66 70 38 91 140 42
201 -149 183 -203 373 -152 539 24 79 26 113 10 145 -20 39 -51 57 -101 57
-38 0 -54 -6 -79 -28z"/>
</g>
</svg>
